<?xml version="1.0" encoding="UTF-8"?>
<svg id="Layer_2" data-name="Layer 2" xmlns="http://www.w3.org/2000/svg" viewBox="0 0 3025.83 1871.34">
  <defs>
    <style>
      .cls-1 {
        fill: none;
      }

      .cls-2 {
        letter-spacing: -.01em;
      }

      .cls-3 {
        letter-spacing: -.02em;
      }

      .cls-4 {
        font-family: Bahnschrift, Bahnschrift;
        font-size: 80px;
        font-variation-settings: 'wght' 400, 'wdth' 100;
      }

      .cls-5 {
        fill: #1484cd;
      }

      .cls-6 {
        fill: #323232;
        stroke: #323232;
        stroke-miterlimit: 10;
      }

      .cls-7 {
        letter-spacing: -.02em;
      }

      .cls-8 {
        fill: #333;
        font-family: ZillaSlab-Bold, 'Zilla Slab';
        font-size: 309.28px;
        font-weight: 700;
      }

      .cls-9 {
        letter-spacing: -.01em;
      }

      .cls-10 {
        letter-spacing: 0em;
      }

      .cls-11 {
        letter-spacing: -.02em;
      }
    </style>
  </defs>
  <g id="Layer_1-2" data-name="Layer 1">
    <text class="cls-8" transform="translate(1182.01 967.84)"><tspan class="cls-9" x="0" y="0">P</tspan><tspan class="cls-7" x="180.31" y="0">R</tspan><tspan class="cls-3" x="372.68" y="0">O</tspan><tspan class="cls-2" x="586.4" y="0">MAHD</tspan></text>
    <text class="cls-4" transform="translate(1173.14 1069.2)"><tspan class="cls-10" x="0" y="0">P</tspan><tspan x="49.02" y="0">OUR UN MONDE PLUS JUSTE ET DU</tspan><tspan class="cls-11" x="1283.05" y="0">R</tspan><tspan x="1333.63" y="0">ABLE</tspan></text>
    <g>
      <g>
        <path class="cls-5" d="m838.85,696.8c-70.65,5.25-151.18,18.35-237.29,45.38-89.98,28.25-166.44,65.52-229.36,103.56,2.81-140.52,117.59-253.56,258.77-253.56,85.16,0,160.72,41.13,207.88,104.62Z"/>
        <path class="cls-6" d="m878.89,776.48c-89.42,10.69-158.53,34.94-204.26,54.79-102.76,44.58-139.48,89.46-155.4,112.49-30.25,43.75-30.7,74.16-30.3,85.03.57,15.25,4.17,28.82,8.98,40.41-16.58-13.34-33.77-33.06-39.28-59.96-6.01-29.34,4.63-53.7,9.78-65.48,43.79-100.28,220.48-157.4,245.32-165.18,50.06-13.49,100.13-26.98,150.2-40.47,5.97,12.28,10.99,25.1,14.96,38.37Z"/>
        <path class="cls-6" d="m856.31,723.6c-109.26,19.31-194.52,49.64-253.03,74.53-100.35,42.68-141.73,77.71-167.13,103.6-17.35,17.69-31.46,35.43-42.86,51.87-.14-.29-.26-.58-.38-.88,0,0,0,0,0,0-2.01-10.96-2.39-22.93.24-35.34,3.7-17.46,14.77-42.46,83.07-86.99,34.41-22.43,86.11-51.61,155.41-75.26,55.27-19.3,123.44-38.09,202.65-49.46,3.32-.48,6.63-.94,9.93-1.38,4.31,6.25,8.35,12.69,12.1,19.32Z"/>
        <path class="cls-6" d="m889.79,851.01c0,142.94-115.88,258.82-258.82,258.82-19.36,0-38.23-2.13-56.38-6.16-13.35-8.22-26.76-20.55-33.86-38.72-9.01-23.06-3.54-44.52,0-57.66,9.31-34.58,31.17-61.87,71.35-94.81,54.1-44.34,110.6-73.67,164.2-94.8,27.23-10.74,62.51-22.83,104.97-32.84,5.57,21.12,8.54,43.3,8.54,66.17Z"/>
      </g>
      <g>
        <path class="cls-5" d="m551.63,1139.19c-26.96-6.17-53.11-9.48-67.1-10.98-21.11-48.58-14.55-44.62-75.39-109.27-.78,50.24,30.3,79.38,42.87,100.26-6.57-6.25-14.47-12.63-25.91-17.87-16.32-7.49-18.78-12.28-18.8-12.32l-.19-.68c.11.3-.33-.25-.33-.25l-.78-.99c-.01-47.31-6.35-81.57-45.96-124.54-1.02,16.19,3.68,69.11,17.43,97.15-17.97-15.15-24.8-35.37-24.88-35.62l-.23-.7s-.49-.56-.49-.56l-4.59-5.16c-3.28-15.12-1.48-41.01,3.58-62.06,6.39-26.56-1.01-68.49-18.67-80.7-8.97,17.87-1.27,59.94-3.92,92.67-3.78-13.13-9.63-21.16-15.01-28.51-2.83-3.85-5.56-7.61-7.91-11.94-3.02-26.06,6.98-40.48,15.13-53.77,8.93-14.52,21.83-47.91,12.22-70.51-1.85,21.69-30.34,40.98-37.48,77.59-1.3-14.35-1.75-27.78-1.89-35.1,15.05-25.08,59.98-68.5,68.59-119.35-32.91,27.35-52.11,49.59-64.32,76.9,2.22-20.68,7.01-38.88,9.88-49.47,17.57-14.47,61.98-32.72,64.53-94.93-8.43,24.47-34.42,38.68-55.37,57.32,2.19-6.83,4.9-14.01,8.18-21.05,43.72-31.02,61.77-75.63,66.72-101.44-34.09,23.09-60.59,59.95-70.17,92.4-7.08,13.61-12.02,28.27-15.1,40.37-.76.84-1.54,1.67-2.27,2.55,11.82-23.43,25.93-100.47,17.42-115.02.15,2.32-8.28,33.08-25.26,57.44-15.65,22.42-3.48,63.66,2.82,86.56-1.93,7.38-4.22,16.89-6.09,27.68-4.8-28.08-17.79-64.36-14.76-105.51-10.5,16.96-24.7,66.11-17.44,97.01,6.08,25.86,19.72,49.57,25.5,68.79.14,7.58.6,21.24,1.95,35.95-5.45-21.7-11.77-38.92-20.44-51.16-12.17-17.22-22.52-42.1-22.2-54.91-7.63,33.2,7,109.4,51.74,151.37,2.96,6.46,6.64,11.53,10.27,16.47,5.65,7.69,11.41,15.62,14.77,29.44-11.56-16.6-43.59-39.23-67.9-71.21,5.64,60.83,59.25,116.44,90.86,124.55l.84.96c1.44,4.03,9.09,23.51,27.25,38.49-26.41-12.16-61.82-55.48-95.71-75.48,29.93,39.55,20.22,86.38,98.18,96.95,7.56,1.45,16.25,1.24,25.45,5.76,1.61,2.69,6.57,8.04,21.89,15.07,8.57,3.92,14.91,8.48,20.34,13.23-33.21-16.95-80.58-7.69-112.08-34.63,16.98,53.21,109.66,73.06,149.21,48.55,8.17.82,22.8,2.51,40.01,5.41-8.73,1.22-17.55,3.19-26.42,6.11-87.55,28.89-111.74,11.85-122.39,6.1,18.45,27.69,91,56.3,141.46,26.22,50.45-30.1,79.63-23.74,79.63-23.74,28.95,8.07,64,29.9,77.02,58.16l23.95.76c-22.52-28.34-77.69-70.79-142.23-74.81Z"/>
        <path class="cls-5" d="m710.37,1139.19c26.96-6.17,53.12-9.48,67.1-10.98,21.1-48.58,14.56-44.62,75.4-109.27.77,50.24-30.31,79.38-42.9,100.26,6.59-6.25,14.49-12.63,25.92-17.87,16.33-7.49,18.78-12.28,18.8-12.32l.19-.68c-.11.3.31-.25.31-.25l.78-.99c.02-47.31,6.37-81.57,45.98-124.54,1,16.19-3.69,69.11-17.44,97.15,17.97-15.15,24.8-35.37,24.88-35.62l.23-.7s.49-.56.49-.56l4.58-5.16c3.28-15.12,1.48-41.01-3.58-62.06-6.39-26.56,1.02-68.49,18.68-80.7,8.97,17.87,1.27,59.94,3.93,92.67,3.78-13.13,9.63-21.16,15.02-28.51,2.82-3.85,5.55-7.61,7.91-11.94,3.01-26.06-6.98-40.48-15.13-53.77-8.93-14.52-21.84-47.91-12.22-70.51,1.85,21.69,30.34,40.98,37.48,77.59,1.29-14.35,1.74-27.78,1.89-35.1-15.05-25.08-59.98-68.5-68.59-119.35,32.92,27.35,52.11,49.59,64.32,76.9-2.22-20.68-7.01-38.88-9.88-49.47-17.58-14.47-61.99-32.72-64.53-94.93,8.44,24.47,34.43,38.68,55.38,57.32-2.2-6.83-4.9-14.01-8.19-21.05-43.72-31.02-61.78-75.63-66.72-101.44,34.1,23.09,60.59,59.95,70.18,92.4,7.07,13.61,12.01,28.27,15.1,40.37.75.84,1.54,1.67,2.28,2.55-11.82-23.43-25.93-100.47-17.42-115.02-.16,2.32,8.27,33.08,25.26,57.44,15.65,22.42,3.47,63.66-2.83,86.56,1.93,7.38,4.22,16.89,6.09,27.68,4.8-28.08,17.79-64.36,14.76-105.51,10.5,16.96,24.7,66.11,17.43,97.01-6.08,25.86-19.71,49.57-25.5,68.79-.14,7.58-.59,21.24-1.94,35.95,5.45-21.7,11.77-38.92,20.43-51.16,12.18-17.22,22.53-42.1,22.2-54.91,7.64,33.2-7,109.4-51.72,151.37-2.97,6.46-6.64,11.53-10.26,16.47-5.65,7.69-11.42,15.62-14.78,29.44,11.57-16.6,43.59-39.23,67.91-71.21-5.64,60.83-59.25,116.44-90.85,124.55l-.85.96c-1.44,4.03-9.09,23.51-27.24,38.49,26.4-12.16,61.81-55.48,95.7-75.48-29.94,39.55-20.22,86.38-98.17,96.95-7.56,1.45-16.26,1.24-25.45,5.76-1.61,2.69-6.58,8.04-21.91,15.07-8.56,3.92-14.9,8.48-20.34,13.23,33.22-16.95,80.59-7.69,112.09-34.63-16.98,53.21-109.66,73.06-149.21,48.55-8.17.82-22.79,2.51-39.99,5.41,8.72,1.22,17.53,3.19,26.4,6.11,87.54,28.89,111.74,11.85,122.39,6.1-18.44,27.69-90.98,56.3-141.46,26.22-50.46-30.1-79.63-23.74-79.63-23.74-28.94,8.07-64.01,29.9-77.02,58.16l-23.94.76c22.5-28.34,77.69-70.79,142.22-74.81Z"/>
      </g>
    </g>
    <rect class="cls-1" width="3025.83" height="1871.34"/>
  </g>
</svg>